<mxfile host="app.diagrams.net" agent="Mozilla/5.0 (Windows NT 10.0; Win64; x64) AppleWebKit/537.36 (KHTML, like Gecko) Chrome/135.0.0.0 Safari/537.36 Edg/135.0.0.0" version="26.2.13">
  <diagram name="PÃ¡gina-1" id="Qj9c0yHTaUv6bWiG7qmN">
    <mxGraphModel dx="676" dy="378" grid="1" gridSize="10" guides="1" tooltips="1" connect="1" arrows="1" fold="1" page="1" pageScale="1" pageWidth="827" pageHeight="1169" math="0" shadow="0">
      <root>
        <mxCell id="0" />
        <mxCell id="1" parent="0" />
        <mxCell id="qPnF07jMOAaVKdoR_6zm-295" value="" style="group;rotation=90;" parent="1" vertex="1" connectable="0">
          <mxGeometry x="913" y="684" width="270" height="150" as="geometry" />
        </mxCell>
        <mxCell id="qPnF07jMOAaVKdoR_6zm-296" value="" style="endArrow=none;html=1;rounded=0;" parent="qPnF07jMOAaVKdoR_6zm-295" edge="1">
          <mxGeometry width="50" height="50" relative="1" as="geometry">
            <mxPoint x="210" y="-60" as="sourcePoint" />
            <mxPoint x="210" y="210" as="targetPoint" />
          </mxGeometry>
        </mxCell>
        <mxCell id="qPnF07jMOAaVKdoR_6zm-297" value="A&lt;span style=&quot;font-size: 10px;&quot;&gt;2&lt;/span&gt;" style="edgeLabel;html=1;align=center;verticalAlign=middle;resizable=0;points=[];fontSize=12;fontStyle=0" parent="qPnF07jMOAaVKdoR_6zm-296" vertex="1" connectable="0">
          <mxGeometry relative="1" as="geometry">
            <mxPoint y="-115" as="offset" />
          </mxGeometry>
        </mxCell>
        <mxCell id="qPnF07jMOAaVKdoR_6zm-298" value="A&lt;sub&gt;2&lt;/sub&gt;" style="edgeLabel;html=1;align=center;verticalAlign=middle;resizable=0;points=[];fontSize=12;" parent="qPnF07jMOAaVKdoR_6zm-296" vertex="1" connectable="0">
          <mxGeometry relative="1" as="geometry">
            <mxPoint y="95" as="offset" />
          </mxGeometry>
        </mxCell>
        <mxCell id="qPnF07jMOAaVKdoR_6zm-299" value="A&lt;sub&gt;2&lt;/sub&gt;" style="edgeLabel;html=1;align=center;verticalAlign=middle;resizable=0;points=[];fontSize=12;" parent="qPnF07jMOAaVKdoR_6zm-296" vertex="1" connectable="0">
          <mxGeometry relative="1" as="geometry">
            <mxPoint as="offset" />
          </mxGeometry>
        </mxCell>
        <mxCell id="qPnF07jMOAaVKdoR_6zm-300" value="" style="endArrow=none;html=1;rounded=0;" parent="qPnF07jMOAaVKdoR_6zm-295" edge="1">
          <mxGeometry width="50" height="50" relative="1" as="geometry">
            <mxPoint x="185" y="-60" as="sourcePoint" />
            <mxPoint x="185" y="210" as="targetPoint" />
          </mxGeometry>
        </mxCell>
        <mxCell id="qPnF07jMOAaVKdoR_6zm-301" value="B&lt;sub&gt;2&lt;/sub&gt;" style="edgeLabel;html=1;align=center;verticalAlign=middle;resizable=0;points=[];fontSize=12;fontStyle=0" parent="qPnF07jMOAaVKdoR_6zm-300" vertex="1" connectable="0">
          <mxGeometry relative="1" as="geometry">
            <mxPoint y="-115" as="offset" />
          </mxGeometry>
        </mxCell>
        <mxCell id="qPnF07jMOAaVKdoR_6zm-302" value="B&lt;sub&gt;2&lt;/sub&gt;" style="edgeLabel;html=1;align=center;verticalAlign=middle;resizable=0;points=[];fontSize=12;" parent="qPnF07jMOAaVKdoR_6zm-300" vertex="1" connectable="0">
          <mxGeometry relative="1" as="geometry">
            <mxPoint y="95" as="offset" />
          </mxGeometry>
        </mxCell>
        <mxCell id="qPnF07jMOAaVKdoR_6zm-303" value="B&lt;sub&gt;2&lt;/sub&gt;" style="edgeLabel;html=1;align=center;verticalAlign=middle;resizable=0;points=[];fontSize=12;" parent="qPnF07jMOAaVKdoR_6zm-300" vertex="1" connectable="0">
          <mxGeometry relative="1" as="geometry">
            <mxPoint as="offset" />
          </mxGeometry>
        </mxCell>
        <mxCell id="qPnF07jMOAaVKdoR_6zm-304" value="" style="endArrow=none;html=1;rounded=0;" parent="qPnF07jMOAaVKdoR_6zm-295" edge="1">
          <mxGeometry width="50" height="50" relative="1" as="geometry">
            <mxPoint x="160" y="-60" as="sourcePoint" />
            <mxPoint x="160" y="210" as="targetPoint" />
          </mxGeometry>
        </mxCell>
        <mxCell id="qPnF07jMOAaVKdoR_6zm-305" value="C&lt;span style=&quot;font-size: 10px;&quot;&gt;2&lt;/span&gt;" style="edgeLabel;html=1;align=center;verticalAlign=middle;resizable=0;points=[];fontSize=12;fontStyle=0" parent="qPnF07jMOAaVKdoR_6zm-304" vertex="1" connectable="0">
          <mxGeometry relative="1" as="geometry">
            <mxPoint y="-115" as="offset" />
          </mxGeometry>
        </mxCell>
        <mxCell id="qPnF07jMOAaVKdoR_6zm-306" value="C&lt;sub&gt;2&lt;/sub&gt;" style="edgeLabel;html=1;align=center;verticalAlign=middle;resizable=0;points=[];fontSize=12;" parent="qPnF07jMOAaVKdoR_6zm-304" vertex="1" connectable="0">
          <mxGeometry relative="1" as="geometry">
            <mxPoint y="95" as="offset" />
          </mxGeometry>
        </mxCell>
        <mxCell id="qPnF07jMOAaVKdoR_6zm-307" value="C&lt;sub&gt;2&lt;/sub&gt;" style="edgeLabel;html=1;align=center;verticalAlign=middle;resizable=0;points=[];fontSize=12;" parent="qPnF07jMOAaVKdoR_6zm-304" vertex="1" connectable="0">
          <mxGeometry relative="1" as="geometry">
            <mxPoint as="offset" />
          </mxGeometry>
        </mxCell>
        <mxCell id="qPnF07jMOAaVKdoR_6zm-308" value="" style="endArrow=none;html=1;rounded=0;" parent="qPnF07jMOAaVKdoR_6zm-295" edge="1">
          <mxGeometry width="50" height="50" relative="1" as="geometry">
            <mxPoint x="135" y="-60" as="sourcePoint" />
            <mxPoint x="135" y="210" as="targetPoint" />
          </mxGeometry>
        </mxCell>
        <mxCell id="qPnF07jMOAaVKdoR_6zm-309" value="D&lt;sub&gt;2&lt;/sub&gt;" style="edgeLabel;html=1;align=center;verticalAlign=middle;resizable=0;points=[];fontSize=12;fontStyle=0" parent="qPnF07jMOAaVKdoR_6zm-308" vertex="1" connectable="0">
          <mxGeometry relative="1" as="geometry">
            <mxPoint y="-115" as="offset" />
          </mxGeometry>
        </mxCell>
        <mxCell id="qPnF07jMOAaVKdoR_6zm-310" value="D&lt;sub&gt;2&lt;/sub&gt;" style="edgeLabel;html=1;align=center;verticalAlign=middle;resizable=0;points=[];fontSize=12;" parent="qPnF07jMOAaVKdoR_6zm-308" vertex="1" connectable="0">
          <mxGeometry relative="1" as="geometry">
            <mxPoint y="95" as="offset" />
          </mxGeometry>
        </mxCell>
        <mxCell id="qPnF07jMOAaVKdoR_6zm-311" value="D&lt;sub&gt;2&lt;/sub&gt;" style="edgeLabel;html=1;align=center;verticalAlign=middle;resizable=0;points=[];fontSize=12;" parent="qPnF07jMOAaVKdoR_6zm-308" vertex="1" connectable="0">
          <mxGeometry relative="1" as="geometry">
            <mxPoint as="offset" />
          </mxGeometry>
        </mxCell>
        <mxCell id="qPnF07jMOAaVKdoR_6zm-312" value="" style="endArrow=none;html=1;rounded=0;" parent="qPnF07jMOAaVKdoR_6zm-295" edge="1">
          <mxGeometry width="50" height="50" relative="1" as="geometry">
            <mxPoint x="110" y="-60" as="sourcePoint" />
            <mxPoint x="110" y="210" as="targetPoint" />
          </mxGeometry>
        </mxCell>
        <mxCell id="qPnF07jMOAaVKdoR_6zm-313" value="E&lt;sub&gt;2&lt;/sub&gt;" style="edgeLabel;html=1;align=center;verticalAlign=middle;resizable=0;points=[];fontSize=12;fontStyle=0" parent="qPnF07jMOAaVKdoR_6zm-312" vertex="1" connectable="0">
          <mxGeometry relative="1" as="geometry">
            <mxPoint y="-115" as="offset" />
          </mxGeometry>
        </mxCell>
        <mxCell id="qPnF07jMOAaVKdoR_6zm-314" value="E&lt;sub&gt;2&lt;/sub&gt;" style="edgeLabel;html=1;align=center;verticalAlign=middle;resizable=0;points=[];fontSize=12;" parent="qPnF07jMOAaVKdoR_6zm-312" vertex="1" connectable="0">
          <mxGeometry relative="1" as="geometry">
            <mxPoint y="95" as="offset" />
          </mxGeometry>
        </mxCell>
        <mxCell id="qPnF07jMOAaVKdoR_6zm-315" value="E&lt;sub&gt;2&lt;/sub&gt;" style="edgeLabel;html=1;align=center;verticalAlign=middle;resizable=0;points=[];fontSize=12;" parent="qPnF07jMOAaVKdoR_6zm-312" vertex="1" connectable="0">
          <mxGeometry relative="1" as="geometry">
            <mxPoint as="offset" />
          </mxGeometry>
        </mxCell>
        <mxCell id="qPnF07jMOAaVKdoR_6zm-316" value="F&lt;span style=&quot;font-size: 10px;&quot;&gt;2&lt;/span&gt;" style="endArrow=none;html=1;rounded=0;fontSize=12;" parent="qPnF07jMOAaVKdoR_6zm-295" edge="1">
          <mxGeometry width="50" height="50" relative="1" as="geometry">
            <mxPoint x="85" y="-60" as="sourcePoint" />
            <mxPoint x="85" y="210" as="targetPoint" />
          </mxGeometry>
        </mxCell>
        <mxCell id="qPnF07jMOAaVKdoR_6zm-317" value="F&lt;sub&gt;2&lt;/sub&gt;" style="edgeLabel;html=1;align=center;verticalAlign=middle;resizable=0;points=[];fontSize=12;fontStyle=0" parent="qPnF07jMOAaVKdoR_6zm-316" vertex="1" connectable="0">
          <mxGeometry relative="1" as="geometry">
            <mxPoint y="-115" as="offset" />
          </mxGeometry>
        </mxCell>
        <mxCell id="qPnF07jMOAaVKdoR_6zm-318" value="F&lt;span style=&quot;font-size: 10px;&quot;&gt;&lt;sub&gt;2&lt;/sub&gt;&lt;/span&gt;" style="edgeLabel;html=1;align=center;verticalAlign=middle;resizable=0;points=[];fontSize=12;" parent="qPnF07jMOAaVKdoR_6zm-316" vertex="1" connectable="0">
          <mxGeometry relative="1" as="geometry">
            <mxPoint y="95" as="offset" />
          </mxGeometry>
        </mxCell>
        <mxCell id="qPnF07jMOAaVKdoR_6zm-319" value="" style="endArrow=none;html=1;rounded=0;" parent="qPnF07jMOAaVKdoR_6zm-295" edge="1">
          <mxGeometry width="50" height="50" relative="1" as="geometry">
            <mxPoint x="60" y="-60" as="sourcePoint" />
            <mxPoint x="60" y="210" as="targetPoint" />
          </mxGeometry>
        </mxCell>
        <mxCell id="qPnF07jMOAaVKdoR_6zm-320" value="G&lt;span style=&quot;font-size: 10px;&quot;&gt;&lt;sub&gt;2&lt;/sub&gt;&lt;/span&gt;" style="edgeLabel;html=1;align=center;verticalAlign=middle;resizable=0;points=[];fontSize=12;fontStyle=0" parent="qPnF07jMOAaVKdoR_6zm-319" vertex="1" connectable="0">
          <mxGeometry relative="1" as="geometry">
            <mxPoint y="-115" as="offset" />
          </mxGeometry>
        </mxCell>
        <mxCell id="qPnF07jMOAaVKdoR_6zm-321" value="G&lt;sub&gt;2&lt;/sub&gt;" style="edgeLabel;html=1;align=center;verticalAlign=middle;resizable=0;points=[];fontSize=12;" parent="qPnF07jMOAaVKdoR_6zm-319" vertex="1" connectable="0">
          <mxGeometry relative="1" as="geometry">
            <mxPoint y="95" as="offset" />
          </mxGeometry>
        </mxCell>
        <mxCell id="qPnF07jMOAaVKdoR_6zm-322" value="G&lt;sub&gt;2&lt;/sub&gt;" style="edgeLabel;html=1;align=center;verticalAlign=middle;resizable=0;points=[];fontSize=12;" parent="qPnF07jMOAaVKdoR_6zm-319" vertex="1" connectable="0">
          <mxGeometry relative="1" as="geometry">
            <mxPoint as="offset" />
          </mxGeometry>
        </mxCell>
        <mxCell id="gEiDcZpScMSGU1Yvg4fd-2" value="" style="shape=waypoint;sketch=0;size=6;pointerEvents=1;points=[];fillColor=none;resizable=0;rotatable=0;perimeter=centerPerimeter;snapToPoint=1;" parent="1" vertex="1">
          <mxGeometry x="170" y="24" width="20" height="20" as="geometry" />
        </mxCell>
        <mxCell id="gEiDcZpScMSGU1Yvg4fd-5" value="" style="endArrow=none;html=1;rounded=0;" parent="1" source="gEiDcZpScMSGU1Yvg4fd-2" edge="1">
          <mxGeometry width="50" height="50" relative="1" as="geometry">
            <mxPoint x="540" y="294" as="sourcePoint" />
            <mxPoint x="450" y="34" as="targetPoint" />
          </mxGeometry>
        </mxCell>
        <mxCell id="qPnF07jMOAaVKdoR_6zm-34" value="S&lt;sub&gt;0&lt;/sub&gt;" style="text;html=1;align=center;verticalAlign=middle;resizable=0;points=[];autosize=1;strokeColor=none;fillColor=none;" parent="1" vertex="1">
          <mxGeometry x="140" y="19" width="40" height="30" as="geometry" />
        </mxCell>
        <mxCell id="qPnF07jMOAaVKdoR_6zm-35" value="" style="shape=waypoint;sketch=0;size=6;pointerEvents=1;points=[];fillColor=none;resizable=0;rotatable=0;perimeter=centerPerimeter;snapToPoint=1;" parent="1" vertex="1">
          <mxGeometry x="170" y="49" width="20" height="20" as="geometry" />
        </mxCell>
        <mxCell id="qPnF07jMOAaVKdoR_6zm-36" value="" style="endArrow=none;html=1;rounded=0;" parent="1" source="qPnF07jMOAaVKdoR_6zm-35" edge="1">
          <mxGeometry width="50" height="50" relative="1" as="geometry">
            <mxPoint x="540" y="319" as="sourcePoint" />
            <mxPoint x="450" y="59" as="targetPoint" />
          </mxGeometry>
        </mxCell>
        <mxCell id="qPnF07jMOAaVKdoR_6zm-37" value="S&lt;span style=&quot;font-size: 10px;&quot;&gt;&lt;sub&gt;1&lt;/sub&gt;&lt;/span&gt;" style="text;html=1;align=center;verticalAlign=middle;resizable=0;points=[];autosize=1;strokeColor=none;fillColor=none;" parent="1" vertex="1">
          <mxGeometry x="140" y="44" width="40" height="30" as="geometry" />
        </mxCell>
        <mxCell id="qPnF07jMOAaVKdoR_6zm-38" value="" style="shape=waypoint;sketch=0;size=6;pointerEvents=1;points=[];fillColor=none;resizable=0;rotatable=0;perimeter=centerPerimeter;snapToPoint=1;" parent="1" vertex="1">
          <mxGeometry x="170" y="74" width="20" height="20" as="geometry" />
        </mxCell>
        <mxCell id="qPnF07jMOAaVKdoR_6zm-39" value="" style="endArrow=none;html=1;rounded=0;" parent="1" source="qPnF07jMOAaVKdoR_6zm-38" edge="1">
          <mxGeometry width="50" height="50" relative="1" as="geometry">
            <mxPoint x="540" y="344" as="sourcePoint" />
            <mxPoint x="450" y="84" as="targetPoint" />
          </mxGeometry>
        </mxCell>
        <mxCell id="qPnF07jMOAaVKdoR_6zm-40" value="S&lt;span style=&quot;font-size: 10px;&quot;&gt;&lt;sub&gt;2&lt;/sub&gt;&lt;/span&gt;" style="text;html=1;align=center;verticalAlign=middle;resizable=0;points=[];autosize=1;strokeColor=none;fillColor=none;" parent="1" vertex="1">
          <mxGeometry x="140" y="69" width="40" height="30" as="geometry" />
        </mxCell>
        <mxCell id="qPnF07jMOAaVKdoR_6zm-41" value="" style="shape=waypoint;sketch=0;size=6;pointerEvents=1;points=[];fillColor=none;resizable=0;rotatable=0;perimeter=centerPerimeter;snapToPoint=1;" parent="1" vertex="1">
          <mxGeometry x="170" y="99" width="20" height="20" as="geometry" />
        </mxCell>
        <mxCell id="qPnF07jMOAaVKdoR_6zm-42" value="" style="endArrow=none;html=1;rounded=0;" parent="1" source="qPnF07jMOAaVKdoR_6zm-41" edge="1">
          <mxGeometry width="50" height="50" relative="1" as="geometry">
            <mxPoint x="540" y="369" as="sourcePoint" />
            <mxPoint x="450" y="109" as="targetPoint" />
          </mxGeometry>
        </mxCell>
        <mxCell id="qPnF07jMOAaVKdoR_6zm-43" value="S&lt;span style=&quot;font-size: 10px;&quot;&gt;&lt;sub&gt;3&lt;/sub&gt;&lt;/span&gt;" style="text;html=1;align=center;verticalAlign=middle;resizable=0;points=[];autosize=1;strokeColor=none;fillColor=none;" parent="1" vertex="1">
          <mxGeometry x="140" y="94" width="40" height="30" as="geometry" />
        </mxCell>
        <mxCell id="qPnF07jMOAaVKdoR_6zm-52" value="" style="shape=waypoint;sketch=0;size=6;pointerEvents=1;points=[];fillColor=none;resizable=0;rotatable=0;perimeter=centerPerimeter;snapToPoint=1;" parent="1" vertex="1">
          <mxGeometry x="170" y="124" width="20" height="20" as="geometry" />
        </mxCell>
        <mxCell id="qPnF07jMOAaVKdoR_6zm-53" value="" style="endArrow=none;html=1;rounded=0;" parent="1" source="qPnF07jMOAaVKdoR_6zm-52" edge="1">
          <mxGeometry width="50" height="50" relative="1" as="geometry">
            <mxPoint x="540" y="394" as="sourcePoint" />
            <mxPoint x="450" y="134" as="targetPoint" />
          </mxGeometry>
        </mxCell>
        <mxCell id="qPnF07jMOAaVKdoR_6zm-54" value="S&lt;sub&gt;4&lt;/sub&gt;" style="text;html=1;align=center;verticalAlign=middle;resizable=0;points=[];autosize=1;strokeColor=none;fillColor=none;" parent="1" vertex="1">
          <mxGeometry x="140" y="119" width="40" height="30" as="geometry" />
        </mxCell>
        <mxCell id="qPnF07jMOAaVKdoR_6zm-55" value="" style="shape=waypoint;sketch=0;size=6;pointerEvents=1;points=[];fillColor=none;resizable=0;rotatable=0;perimeter=centerPerimeter;snapToPoint=1;" parent="1" vertex="1">
          <mxGeometry x="170" y="149" width="20" height="20" as="geometry" />
        </mxCell>
        <mxCell id="qPnF07jMOAaVKdoR_6zm-56" value="" style="endArrow=none;html=1;rounded=0;" parent="1" source="qPnF07jMOAaVKdoR_6zm-55" edge="1">
          <mxGeometry width="50" height="50" relative="1" as="geometry">
            <mxPoint x="540" y="419" as="sourcePoint" />
            <mxPoint x="450" y="159" as="targetPoint" />
          </mxGeometry>
        </mxCell>
        <mxCell id="qPnF07jMOAaVKdoR_6zm-57" value="S&lt;sub&gt;5&lt;/sub&gt;" style="text;html=1;align=center;verticalAlign=middle;resizable=0;points=[];autosize=1;strokeColor=none;fillColor=none;" parent="1" vertex="1">
          <mxGeometry x="140" y="144" width="40" height="30" as="geometry" />
        </mxCell>
        <mxCell id="qPnF07jMOAaVKdoR_6zm-58" value="" style="shape=waypoint;sketch=0;size=6;pointerEvents=1;points=[];fillColor=none;resizable=0;rotatable=0;perimeter=centerPerimeter;snapToPoint=1;" parent="1" vertex="1">
          <mxGeometry x="170" y="174" width="20" height="20" as="geometry" />
        </mxCell>
        <mxCell id="qPnF07jMOAaVKdoR_6zm-59" value="" style="endArrow=none;html=1;rounded=0;" parent="1" source="qPnF07jMOAaVKdoR_6zm-58" edge="1">
          <mxGeometry width="50" height="50" relative="1" as="geometry">
            <mxPoint x="540" y="444" as="sourcePoint" />
            <mxPoint x="450" y="184" as="targetPoint" />
          </mxGeometry>
        </mxCell>
        <mxCell id="qPnF07jMOAaVKdoR_6zm-60" value="S&lt;sub&gt;6&lt;/sub&gt;" style="text;html=1;align=center;verticalAlign=middle;resizable=0;points=[];autosize=1;strokeColor=none;fillColor=none;" parent="1" vertex="1">
          <mxGeometry x="140" y="169" width="40" height="30" as="geometry" />
        </mxCell>
        <mxCell id="qPnF07jMOAaVKdoR_6zm-61" value="" style="shape=waypoint;sketch=0;size=6;pointerEvents=1;points=[];fillColor=none;resizable=0;rotatable=0;perimeter=centerPerimeter;snapToPoint=1;" parent="1" vertex="1">
          <mxGeometry x="170" y="199" width="20" height="20" as="geometry" />
        </mxCell>
        <mxCell id="qPnF07jMOAaVKdoR_6zm-62" value="" style="endArrow=none;html=1;rounded=0;" parent="1" source="qPnF07jMOAaVKdoR_6zm-61" edge="1">
          <mxGeometry width="50" height="50" relative="1" as="geometry">
            <mxPoint x="540" y="469" as="sourcePoint" />
            <mxPoint x="450" y="209" as="targetPoint" />
          </mxGeometry>
        </mxCell>
        <mxCell id="qPnF07jMOAaVKdoR_6zm-63" value="S&lt;sub&gt;7&lt;/sub&gt;" style="text;html=1;align=center;verticalAlign=middle;resizable=0;points=[];autosize=1;strokeColor=none;fillColor=none;" parent="1" vertex="1">
          <mxGeometry x="140" y="194" width="40" height="30" as="geometry" />
        </mxCell>
        <mxCell id="qPnF07jMOAaVKdoR_6zm-64" value="" style="shape=waypoint;sketch=0;size=6;pointerEvents=1;points=[];fillColor=none;resizable=0;rotatable=0;perimeter=centerPerimeter;snapToPoint=1;" parent="1" vertex="1">
          <mxGeometry x="170" y="224" width="20" height="20" as="geometry" />
        </mxCell>
        <mxCell id="qPnF07jMOAaVKdoR_6zm-65" value="" style="endArrow=none;html=1;rounded=0;" parent="1" source="qPnF07jMOAaVKdoR_6zm-64" edge="1">
          <mxGeometry width="50" height="50" relative="1" as="geometry">
            <mxPoint x="540" y="494" as="sourcePoint" />
            <mxPoint x="450" y="234" as="targetPoint" />
          </mxGeometry>
        </mxCell>
        <mxCell id="qPnF07jMOAaVKdoR_6zm-66" value="S&lt;sub&gt;8&lt;/sub&gt;" style="text;html=1;align=center;verticalAlign=middle;resizable=0;points=[];autosize=1;strokeColor=none;fillColor=none;" parent="1" vertex="1">
          <mxGeometry x="140" y="219" width="40" height="30" as="geometry" />
        </mxCell>
        <mxCell id="qPnF07jMOAaVKdoR_6zm-67" value="" style="shape=waypoint;sketch=0;size=6;pointerEvents=1;points=[];fillColor=none;resizable=0;rotatable=0;perimeter=centerPerimeter;snapToPoint=1;" parent="1" vertex="1">
          <mxGeometry x="170" y="249" width="20" height="20" as="geometry" />
        </mxCell>
        <mxCell id="qPnF07jMOAaVKdoR_6zm-68" value="" style="endArrow=none;html=1;rounded=0;" parent="1" source="qPnF07jMOAaVKdoR_6zm-67" edge="1">
          <mxGeometry width="50" height="50" relative="1" as="geometry">
            <mxPoint x="540" y="519" as="sourcePoint" />
            <mxPoint x="450" y="259" as="targetPoint" />
          </mxGeometry>
        </mxCell>
        <mxCell id="qPnF07jMOAaVKdoR_6zm-69" value="S&lt;sub&gt;9&lt;/sub&gt;" style="text;html=1;align=center;verticalAlign=middle;resizable=0;points=[];autosize=1;strokeColor=none;fillColor=none;" parent="1" vertex="1">
          <mxGeometry x="140" y="244" width="40" height="30" as="geometry" />
        </mxCell>
        <mxCell id="qPnF07jMOAaVKdoR_6zm-70" value="" style="shape=waypoint;sketch=0;size=6;pointerEvents=1;points=[];fillColor=none;resizable=0;rotatable=0;perimeter=centerPerimeter;snapToPoint=1;" parent="1" vertex="1">
          <mxGeometry x="170" y="274" width="20" height="20" as="geometry" />
        </mxCell>
        <mxCell id="qPnF07jMOAaVKdoR_6zm-71" value="" style="endArrow=none;html=1;rounded=0;" parent="1" source="qPnF07jMOAaVKdoR_6zm-70" edge="1">
          <mxGeometry width="50" height="50" relative="1" as="geometry">
            <mxPoint x="540" y="544" as="sourcePoint" />
            <mxPoint x="450" y="284" as="targetPoint" />
          </mxGeometry>
        </mxCell>
        <mxCell id="qPnF07jMOAaVKdoR_6zm-72" value="S&lt;sub&gt;10&lt;/sub&gt;" style="text;html=1;align=center;verticalAlign=middle;resizable=0;points=[];autosize=1;strokeColor=none;fillColor=none;" parent="1" vertex="1">
          <mxGeometry x="140" y="269" width="40" height="30" as="geometry" />
        </mxCell>
        <mxCell id="qPnF07jMOAaVKdoR_6zm-73" value="" style="shape=waypoint;sketch=0;size=6;pointerEvents=1;points=[];fillColor=none;resizable=0;rotatable=0;perimeter=centerPerimeter;snapToPoint=1;" parent="1" vertex="1">
          <mxGeometry x="170" y="299" width="20" height="20" as="geometry" />
        </mxCell>
        <mxCell id="qPnF07jMOAaVKdoR_6zm-74" value="" style="endArrow=none;html=1;rounded=0;" parent="1" source="qPnF07jMOAaVKdoR_6zm-73" edge="1">
          <mxGeometry width="50" height="50" relative="1" as="geometry">
            <mxPoint x="540" y="569" as="sourcePoint" />
            <mxPoint x="450" y="309" as="targetPoint" />
          </mxGeometry>
        </mxCell>
        <mxCell id="qPnF07jMOAaVKdoR_6zm-75" value="S&lt;sub&gt;11&lt;/sub&gt;" style="text;html=1;align=center;verticalAlign=middle;resizable=0;points=[];autosize=1;strokeColor=none;fillColor=none;" parent="1" vertex="1">
          <mxGeometry x="140" y="294" width="40" height="30" as="geometry" />
        </mxCell>
        <mxCell id="qPnF07jMOAaVKdoR_6zm-76" value="" style="shape=waypoint;sketch=0;size=6;pointerEvents=1;points=[];fillColor=none;resizable=0;rotatable=0;perimeter=centerPerimeter;snapToPoint=1;" parent="1" vertex="1">
          <mxGeometry x="170" y="324" width="20" height="20" as="geometry" />
        </mxCell>
        <mxCell id="qPnF07jMOAaVKdoR_6zm-77" value="" style="endArrow=none;html=1;rounded=0;" parent="1" source="qPnF07jMOAaVKdoR_6zm-76" edge="1">
          <mxGeometry width="50" height="50" relative="1" as="geometry">
            <mxPoint x="540" y="594" as="sourcePoint" />
            <mxPoint x="450" y="334" as="targetPoint" />
          </mxGeometry>
        </mxCell>
        <mxCell id="qPnF07jMOAaVKdoR_6zm-78" value="S&lt;sub&gt;12&lt;/sub&gt;" style="text;html=1;align=center;verticalAlign=middle;resizable=0;points=[];autosize=1;strokeColor=none;fillColor=none;" parent="1" vertex="1">
          <mxGeometry x="140" y="319" width="40" height="30" as="geometry" />
        </mxCell>
        <mxCell id="qPnF07jMOAaVKdoR_6zm-79" value="" style="shape=waypoint;sketch=0;size=6;pointerEvents=1;points=[];fillColor=none;resizable=0;rotatable=0;perimeter=centerPerimeter;snapToPoint=1;" parent="1" vertex="1">
          <mxGeometry x="170" y="349" width="20" height="20" as="geometry" />
        </mxCell>
        <mxCell id="qPnF07jMOAaVKdoR_6zm-80" value="" style="endArrow=none;html=1;rounded=0;" parent="1" source="qPnF07jMOAaVKdoR_6zm-79" edge="1">
          <mxGeometry width="50" height="50" relative="1" as="geometry">
            <mxPoint x="540" y="619" as="sourcePoint" />
            <mxPoint x="450" y="359" as="targetPoint" />
          </mxGeometry>
        </mxCell>
        <mxCell id="qPnF07jMOAaVKdoR_6zm-81" value="S&lt;sub&gt;13&lt;/sub&gt;" style="text;html=1;align=center;verticalAlign=middle;resizable=0;points=[];autosize=1;strokeColor=none;fillColor=none;" parent="1" vertex="1">
          <mxGeometry x="140" y="344" width="40" height="30" as="geometry" />
        </mxCell>
        <mxCell id="qPnF07jMOAaVKdoR_6zm-82" value="" style="shape=waypoint;sketch=0;size=6;pointerEvents=1;points=[];fillColor=none;resizable=0;rotatable=0;perimeter=centerPerimeter;snapToPoint=1;" parent="1" vertex="1">
          <mxGeometry x="170" y="374" width="20" height="20" as="geometry" />
        </mxCell>
        <mxCell id="qPnF07jMOAaVKdoR_6zm-83" value="" style="endArrow=none;html=1;rounded=0;" parent="1" source="qPnF07jMOAaVKdoR_6zm-82" edge="1">
          <mxGeometry width="50" height="50" relative="1" as="geometry">
            <mxPoint x="540" y="644" as="sourcePoint" />
            <mxPoint x="450" y="384" as="targetPoint" />
          </mxGeometry>
        </mxCell>
        <mxCell id="qPnF07jMOAaVKdoR_6zm-84" value="S&lt;sub&gt;14&lt;/sub&gt;" style="text;html=1;align=center;verticalAlign=middle;resizable=0;points=[];autosize=1;strokeColor=none;fillColor=none;" parent="1" vertex="1">
          <mxGeometry x="140" y="369" width="40" height="30" as="geometry" />
        </mxCell>
        <mxCell id="qPnF07jMOAaVKdoR_6zm-85" value="" style="shape=waypoint;sketch=0;size=6;pointerEvents=1;points=[];fillColor=none;resizable=0;rotatable=0;perimeter=centerPerimeter;snapToPoint=1;" parent="1" vertex="1">
          <mxGeometry x="170" y="399" width="20" height="20" as="geometry" />
        </mxCell>
        <mxCell id="qPnF07jMOAaVKdoR_6zm-86" value="" style="endArrow=none;html=1;rounded=0;" parent="1" source="qPnF07jMOAaVKdoR_6zm-85" edge="1">
          <mxGeometry width="50" height="50" relative="1" as="geometry">
            <mxPoint x="540" y="669" as="sourcePoint" />
            <mxPoint x="450" y="409" as="targetPoint" />
          </mxGeometry>
        </mxCell>
        <mxCell id="qPnF07jMOAaVKdoR_6zm-87" value="S&lt;sub&gt;15&lt;/sub&gt;" style="text;html=1;align=center;verticalAlign=middle;resizable=0;points=[];autosize=1;strokeColor=none;fillColor=none;" parent="1" vertex="1">
          <mxGeometry x="140" y="394" width="40" height="30" as="geometry" />
        </mxCell>
        <mxCell id="qPnF07jMOAaVKdoR_6zm-88" value="&lt;p&gt;P&lt;/p&gt;" style="rounded=0;whiteSpace=wrap;html=1;align=center;fontStyle=1;fontSize=46;fontFamily=Helvetica;" parent="1" vertex="1">
          <mxGeometry x="450" y="19" width="160" height="405" as="geometry" />
        </mxCell>
        <mxCell id="qPnF07jMOAaVKdoR_6zm-105" value="" style="endArrow=none;html=1;rounded=0;" parent="1" edge="1">
          <mxGeometry width="50" height="50" relative="1" as="geometry">
            <mxPoint x="610" y="198.9999999999999" as="sourcePoint" />
            <mxPoint x="610" y="199" as="targetPoint" />
          </mxGeometry>
        </mxCell>
        <mxCell id="qPnF07jMOAaVKdoR_6zm-106" value="" style="endArrow=none;html=1;rounded=0;" parent="1" edge="1">
          <mxGeometry width="50" height="50" relative="1" as="geometry">
            <mxPoint x="610" y="173.9999999999999" as="sourcePoint" />
            <mxPoint x="610" y="174" as="targetPoint" />
          </mxGeometry>
        </mxCell>
        <mxCell id="qPnF07jMOAaVKdoR_6zm-107" value="" style="endArrow=none;html=1;rounded=0;" parent="1" edge="1">
          <mxGeometry width="50" height="50" relative="1" as="geometry">
            <mxPoint x="610" y="249" as="sourcePoint" />
            <mxPoint x="610" y="249" as="targetPoint" />
          </mxGeometry>
        </mxCell>
        <mxCell id="qPnF07jMOAaVKdoR_6zm-108" value="" style="endArrow=none;html=1;rounded=0;" parent="1" edge="1">
          <mxGeometry width="50" height="50" relative="1" as="geometry">
            <mxPoint x="610" y="223.9999999999999" as="sourcePoint" />
            <mxPoint x="610" y="224" as="targetPoint" />
          </mxGeometry>
        </mxCell>
        <mxCell id="qPnF07jMOAaVKdoR_6zm-110" value="" style="endArrow=none;html=1;rounded=0;" parent="1" edge="1">
          <mxGeometry width="50" height="50" relative="1" as="geometry">
            <mxPoint x="610" y="259.00000000000006" as="sourcePoint" />
            <mxPoint x="1010" y="259" as="targetPoint" />
          </mxGeometry>
        </mxCell>
        <mxCell id="qPnF07jMOAaVKdoR_6zm-112" value="" style="endArrow=none;html=1;rounded=0;" parent="1" edge="1">
          <mxGeometry width="50" height="50" relative="1" as="geometry">
            <mxPoint x="610" y="234.00000000000006" as="sourcePoint" />
            <mxPoint x="1035" y="234" as="targetPoint" />
          </mxGeometry>
        </mxCell>
        <mxCell id="qPnF07jMOAaVKdoR_6zm-114" value="" style="endArrow=none;html=1;rounded=0;" parent="1" edge="1">
          <mxGeometry width="50" height="50" relative="1" as="geometry">
            <mxPoint x="610" y="208.58000000000004" as="sourcePoint" />
            <mxPoint x="1060" y="209" as="targetPoint" />
          </mxGeometry>
        </mxCell>
        <mxCell id="qPnF07jMOAaVKdoR_6zm-116" value="" style="endArrow=none;html=1;rounded=0;" parent="1" edge="1">
          <mxGeometry width="50" height="50" relative="1" as="geometry">
            <mxPoint x="610" y="183.58000000000004" as="sourcePoint" />
            <mxPoint x="1085" y="184" as="targetPoint" />
          </mxGeometry>
        </mxCell>
        <mxCell id="qPnF07jMOAaVKdoR_6zm-121" value="&lt;sub&gt;&lt;span style=&quot;font-size: 12px;&quot;&gt;P&lt;/span&gt;0&lt;/sub&gt;" style="text;html=1;align=center;verticalAlign=middle;resizable=0;points=[];autosize=1;strokeColor=none;fillColor=none;" parent="1" vertex="1">
          <mxGeometry x="610" y="159" width="40" height="30" as="geometry" />
        </mxCell>
        <mxCell id="qPnF07jMOAaVKdoR_6zm-122" value="&lt;sub style=&quot;&quot;&gt;&lt;span style=&quot;font-size: 12px;&quot;&gt;P&lt;/span&gt;1&lt;/sub&gt;" style="text;html=1;align=center;verticalAlign=middle;resizable=0;points=[];autosize=1;strokeColor=none;fillColor=none;" parent="1" vertex="1">
          <mxGeometry x="610" y="184" width="40" height="30" as="geometry" />
        </mxCell>
        <mxCell id="qPnF07jMOAaVKdoR_6zm-123" value="&lt;sub style=&quot;&quot;&gt;&lt;span style=&quot;font-size: 12px;&quot;&gt;P&lt;/span&gt;2&lt;/sub&gt;" style="text;html=1;align=center;verticalAlign=middle;resizable=0;points=[];autosize=1;strokeColor=none;fillColor=none;" parent="1" vertex="1">
          <mxGeometry x="610" y="209" width="40" height="30" as="geometry" />
        </mxCell>
        <mxCell id="qPnF07jMOAaVKdoR_6zm-124" value="&lt;sub style=&quot;&quot;&gt;&lt;span style=&quot;font-size: 12px;&quot;&gt;P&lt;/span&gt;3&lt;/sub&gt;" style="text;html=1;align=center;verticalAlign=middle;resizable=0;points=[];autosize=1;strokeColor=none;fillColor=none;" parent="1" vertex="1">
          <mxGeometry x="610" y="234" width="40" height="30" as="geometry" />
        </mxCell>
        <mxCell id="qPnF07jMOAaVKdoR_6zm-152" value="L1" style="rounded=0;whiteSpace=wrap;html=1;fontSize=30;fontStyle=1" parent="1" vertex="1">
          <mxGeometry x="663.5" y="529" width="230" height="95" as="geometry" />
        </mxCell>
        <mxCell id="qPnF07jMOAaVKdoR_6zm-153" value="" style="group" parent="1" vertex="1" connectable="0">
          <mxGeometry x="741" y="184" width="75" height="345" as="geometry" />
        </mxCell>
        <mxCell id="qPnF07jMOAaVKdoR_6zm-141" value="" style="endArrow=none;html=1;rounded=0;" parent="qPnF07jMOAaVKdoR_6zm-153" edge="1">
          <mxGeometry width="50" height="50" relative="1" as="geometry">
            <mxPoint x="75" as="sourcePoint" />
            <mxPoint x="75" y="345" as="targetPoint" />
          </mxGeometry>
        </mxCell>
        <mxCell id="qPnF07jMOAaVKdoR_6zm-142" value="" style="endArrow=none;html=1;rounded=0;" parent="qPnF07jMOAaVKdoR_6zm-153" edge="1">
          <mxGeometry width="50" height="50" relative="1" as="geometry">
            <mxPoint x="50" y="25" as="sourcePoint" />
            <mxPoint x="50" y="345" as="targetPoint" />
          </mxGeometry>
        </mxCell>
        <mxCell id="qPnF07jMOAaVKdoR_6zm-143" value="" style="endArrow=none;html=1;rounded=0;" parent="qPnF07jMOAaVKdoR_6zm-153" edge="1">
          <mxGeometry width="50" height="50" relative="1" as="geometry">
            <mxPoint x="25" y="50" as="sourcePoint" />
            <mxPoint x="25" y="345" as="targetPoint" />
          </mxGeometry>
        </mxCell>
        <mxCell id="qPnF07jMOAaVKdoR_6zm-144" value="" style="endArrow=none;html=1;rounded=0;" parent="qPnF07jMOAaVKdoR_6zm-153" edge="1">
          <mxGeometry width="50" height="50" relative="1" as="geometry">
            <mxPoint y="75" as="sourcePoint" />
            <mxPoint y="345" as="targetPoint" />
          </mxGeometry>
        </mxCell>
        <mxCell id="qPnF07jMOAaVKdoR_6zm-155" value="" style="group" parent="1" vertex="1" connectable="0">
          <mxGeometry x="1010" y="184" width="75" height="345" as="geometry" />
        </mxCell>
        <mxCell id="qPnF07jMOAaVKdoR_6zm-148" value="" style="endArrow=none;html=1;rounded=0;" parent="qPnF07jMOAaVKdoR_6zm-155" edge="1">
          <mxGeometry width="50" height="50" relative="1" as="geometry">
            <mxPoint x="75" as="sourcePoint" />
            <mxPoint x="75" y="345" as="targetPoint" />
          </mxGeometry>
        </mxCell>
        <mxCell id="qPnF07jMOAaVKdoR_6zm-149" value="" style="endArrow=none;html=1;rounded=0;" parent="qPnF07jMOAaVKdoR_6zm-155" edge="1">
          <mxGeometry width="50" height="50" relative="1" as="geometry">
            <mxPoint x="50" y="25" as="sourcePoint" />
            <mxPoint x="50" y="345" as="targetPoint" />
          </mxGeometry>
        </mxCell>
        <mxCell id="qPnF07jMOAaVKdoR_6zm-150" value="" style="endArrow=none;html=1;rounded=0;" parent="qPnF07jMOAaVKdoR_6zm-155" edge="1">
          <mxGeometry width="50" height="50" relative="1" as="geometry">
            <mxPoint x="25" y="50" as="sourcePoint" />
            <mxPoint x="25" y="345" as="targetPoint" />
          </mxGeometry>
        </mxCell>
        <mxCell id="qPnF07jMOAaVKdoR_6zm-151" value="" style="endArrow=none;html=1;rounded=0;" parent="qPnF07jMOAaVKdoR_6zm-155" edge="1">
          <mxGeometry width="50" height="50" relative="1" as="geometry">
            <mxPoint y="75" as="sourcePoint" />
            <mxPoint y="345" as="targetPoint" />
          </mxGeometry>
        </mxCell>
        <mxCell id="qPnF07jMOAaVKdoR_6zm-171" value="" style="endArrow=none;html=1;rounded=0;" parent="1" edge="1">
          <mxGeometry width="50" height="50" relative="1" as="geometry">
            <mxPoint x="610" y="333.6600000000001" as="sourcePoint" />
            <mxPoint x="642" y="334" as="targetPoint" />
          </mxGeometry>
        </mxCell>
        <mxCell id="qPnF07jMOAaVKdoR_6zm-172" value="S" style="text;html=1;align=center;verticalAlign=middle;resizable=0;points=[];autosize=1;strokeColor=none;fillColor=none;" parent="1" vertex="1">
          <mxGeometry x="610" y="311" width="30" height="30" as="geometry" />
        </mxCell>
        <mxCell id="qPnF07jMOAaVKdoR_6zm-181" value="" style="group;rotation=90;" parent="1" vertex="1" connectable="0">
          <mxGeometry x="643.5" y="684" width="270" height="150" as="geometry" />
        </mxCell>
        <mxCell id="qPnF07jMOAaVKdoR_6zm-174" value="" style="endArrow=none;html=1;rounded=0;" parent="qPnF07jMOAaVKdoR_6zm-181" edge="1">
          <mxGeometry width="50" height="50" relative="1" as="geometry">
            <mxPoint x="210" y="-60" as="sourcePoint" />
            <mxPoint x="210" y="210" as="targetPoint" />
          </mxGeometry>
        </mxCell>
        <mxCell id="qPnF07jMOAaVKdoR_6zm-228" value="A&lt;sub&gt;1&lt;/sub&gt;" style="edgeLabel;html=1;align=center;verticalAlign=middle;resizable=0;points=[];fontSize=12;fontStyle=0" parent="qPnF07jMOAaVKdoR_6zm-174" vertex="1" connectable="0">
          <mxGeometry relative="1" as="geometry">
            <mxPoint y="-115" as="offset" />
          </mxGeometry>
        </mxCell>
        <mxCell id="qPnF07jMOAaVKdoR_6zm-264" value="A&lt;sub&gt;1&lt;/sub&gt;" style="edgeLabel;html=1;align=center;verticalAlign=middle;resizable=0;points=[];fontSize=12;" parent="qPnF07jMOAaVKdoR_6zm-174" vertex="1" connectable="0">
          <mxGeometry relative="1" as="geometry">
            <mxPoint y="95" as="offset" />
          </mxGeometry>
        </mxCell>
        <mxCell id="qPnF07jMOAaVKdoR_6zm-292" value="A&lt;sub&gt;1&lt;/sub&gt;" style="edgeLabel;html=1;align=center;verticalAlign=middle;resizable=0;points=[];fontSize=12;" parent="qPnF07jMOAaVKdoR_6zm-174" vertex="1" connectable="0">
          <mxGeometry relative="1" as="geometry">
            <mxPoint as="offset" />
          </mxGeometry>
        </mxCell>
        <mxCell id="qPnF07jMOAaVKdoR_6zm-175" value="" style="endArrow=none;html=1;rounded=0;" parent="qPnF07jMOAaVKdoR_6zm-181" edge="1">
          <mxGeometry width="50" height="50" relative="1" as="geometry">
            <mxPoint x="185" y="-60" as="sourcePoint" />
            <mxPoint x="185" y="210" as="targetPoint" />
          </mxGeometry>
        </mxCell>
        <mxCell id="qPnF07jMOAaVKdoR_6zm-227" value="B&lt;sub&gt;1&lt;/sub&gt;" style="edgeLabel;html=1;align=center;verticalAlign=middle;resizable=0;points=[];fontSize=12;fontStyle=0" parent="qPnF07jMOAaVKdoR_6zm-175" vertex="1" connectable="0">
          <mxGeometry relative="1" as="geometry">
            <mxPoint y="-115" as="offset" />
          </mxGeometry>
        </mxCell>
        <mxCell id="qPnF07jMOAaVKdoR_6zm-263" value="B&lt;sub&gt;1&lt;/sub&gt;" style="edgeLabel;html=1;align=center;verticalAlign=middle;resizable=0;points=[];fontSize=12;" parent="qPnF07jMOAaVKdoR_6zm-175" vertex="1" connectable="0">
          <mxGeometry relative="1" as="geometry">
            <mxPoint y="95" as="offset" />
          </mxGeometry>
        </mxCell>
        <mxCell id="qPnF07jMOAaVKdoR_6zm-291" value="B&lt;sub&gt;1&lt;/sub&gt;" style="edgeLabel;html=1;align=center;verticalAlign=middle;resizable=0;points=[];fontSize=12;" parent="qPnF07jMOAaVKdoR_6zm-175" vertex="1" connectable="0">
          <mxGeometry relative="1" as="geometry">
            <mxPoint as="offset" />
          </mxGeometry>
        </mxCell>
        <mxCell id="qPnF07jMOAaVKdoR_6zm-176" value="" style="endArrow=none;html=1;rounded=0;" parent="qPnF07jMOAaVKdoR_6zm-181" edge="1">
          <mxGeometry width="50" height="50" relative="1" as="geometry">
            <mxPoint x="160" y="-60" as="sourcePoint" />
            <mxPoint x="160" y="210" as="targetPoint" />
          </mxGeometry>
        </mxCell>
        <mxCell id="qPnF07jMOAaVKdoR_6zm-226" value="C&lt;sub&gt;1&lt;/sub&gt;" style="edgeLabel;html=1;align=center;verticalAlign=middle;resizable=0;points=[];fontSize=12;fontStyle=0" parent="qPnF07jMOAaVKdoR_6zm-176" vertex="1" connectable="0">
          <mxGeometry relative="1" as="geometry">
            <mxPoint y="-115" as="offset" />
          </mxGeometry>
        </mxCell>
        <mxCell id="qPnF07jMOAaVKdoR_6zm-262" value="C&lt;sub&gt;1&lt;/sub&gt;" style="edgeLabel;html=1;align=center;verticalAlign=middle;resizable=0;points=[];fontSize=12;" parent="qPnF07jMOAaVKdoR_6zm-176" vertex="1" connectable="0">
          <mxGeometry relative="1" as="geometry">
            <mxPoint y="95" as="offset" />
          </mxGeometry>
        </mxCell>
        <mxCell id="qPnF07jMOAaVKdoR_6zm-290" value="C&lt;sub&gt;1&lt;/sub&gt;" style="edgeLabel;html=1;align=center;verticalAlign=middle;resizable=0;points=[];fontSize=12;" parent="qPnF07jMOAaVKdoR_6zm-176" vertex="1" connectable="0">
          <mxGeometry relative="1" as="geometry">
            <mxPoint as="offset" />
          </mxGeometry>
        </mxCell>
        <mxCell id="qPnF07jMOAaVKdoR_6zm-177" value="" style="endArrow=none;html=1;rounded=0;" parent="qPnF07jMOAaVKdoR_6zm-181" edge="1">
          <mxGeometry width="50" height="50" relative="1" as="geometry">
            <mxPoint x="135" y="-60" as="sourcePoint" />
            <mxPoint x="135" y="210" as="targetPoint" />
          </mxGeometry>
        </mxCell>
        <mxCell id="qPnF07jMOAaVKdoR_6zm-225" value="D&lt;sub&gt;1&lt;/sub&gt;" style="edgeLabel;html=1;align=center;verticalAlign=middle;resizable=0;points=[];fontSize=12;fontStyle=0" parent="qPnF07jMOAaVKdoR_6zm-177" vertex="1" connectable="0">
          <mxGeometry relative="1" as="geometry">
            <mxPoint y="-115" as="offset" />
          </mxGeometry>
        </mxCell>
        <mxCell id="qPnF07jMOAaVKdoR_6zm-261" value="D&lt;sub&gt;1&lt;/sub&gt;" style="edgeLabel;html=1;align=center;verticalAlign=middle;resizable=0;points=[];fontSize=12;" parent="qPnF07jMOAaVKdoR_6zm-177" vertex="1" connectable="0">
          <mxGeometry relative="1" as="geometry">
            <mxPoint y="95" as="offset" />
          </mxGeometry>
        </mxCell>
        <mxCell id="qPnF07jMOAaVKdoR_6zm-289" value="D&lt;sub&gt;1&lt;/sub&gt;" style="edgeLabel;html=1;align=center;verticalAlign=middle;resizable=0;points=[];fontSize=12;" parent="qPnF07jMOAaVKdoR_6zm-177" vertex="1" connectable="0">
          <mxGeometry relative="1" as="geometry">
            <mxPoint as="offset" />
          </mxGeometry>
        </mxCell>
        <mxCell id="qPnF07jMOAaVKdoR_6zm-178" value="" style="endArrow=none;html=1;rounded=0;" parent="qPnF07jMOAaVKdoR_6zm-181" edge="1">
          <mxGeometry width="50" height="50" relative="1" as="geometry">
            <mxPoint x="110" y="-60" as="sourcePoint" />
            <mxPoint x="110" y="210" as="targetPoint" />
          </mxGeometry>
        </mxCell>
        <mxCell id="qPnF07jMOAaVKdoR_6zm-224" value="E&lt;sub&gt;1&lt;/sub&gt;" style="edgeLabel;html=1;align=center;verticalAlign=middle;resizable=0;points=[];fontSize=12;fontStyle=0" parent="qPnF07jMOAaVKdoR_6zm-178" vertex="1" connectable="0">
          <mxGeometry relative="1" as="geometry">
            <mxPoint y="-115" as="offset" />
          </mxGeometry>
        </mxCell>
        <mxCell id="qPnF07jMOAaVKdoR_6zm-260" value="E&lt;sub&gt;1&lt;/sub&gt;" style="edgeLabel;html=1;align=center;verticalAlign=middle;resizable=0;points=[];fontSize=12;" parent="qPnF07jMOAaVKdoR_6zm-178" vertex="1" connectable="0">
          <mxGeometry relative="1" as="geometry">
            <mxPoint y="95" as="offset" />
          </mxGeometry>
        </mxCell>
        <mxCell id="qPnF07jMOAaVKdoR_6zm-288" value="E&lt;sub&gt;1&lt;/sub&gt;" style="edgeLabel;html=1;align=center;verticalAlign=middle;resizable=0;points=[];fontSize=12;" parent="qPnF07jMOAaVKdoR_6zm-178" vertex="1" connectable="0">
          <mxGeometry relative="1" as="geometry">
            <mxPoint as="offset" />
          </mxGeometry>
        </mxCell>
        <mxCell id="qPnF07jMOAaVKdoR_6zm-179" value="F&lt;sub&gt;1&lt;/sub&gt;" style="endArrow=none;html=1;rounded=0;fontSize=12;" parent="qPnF07jMOAaVKdoR_6zm-181" edge="1">
          <mxGeometry width="50" height="50" relative="1" as="geometry">
            <mxPoint x="85" y="-60" as="sourcePoint" />
            <mxPoint x="85" y="210" as="targetPoint" />
          </mxGeometry>
        </mxCell>
        <mxCell id="qPnF07jMOAaVKdoR_6zm-223" value="F&lt;sub&gt;1&lt;/sub&gt;" style="edgeLabel;html=1;align=center;verticalAlign=middle;resizable=0;points=[];fontSize=12;fontStyle=0" parent="qPnF07jMOAaVKdoR_6zm-179" vertex="1" connectable="0">
          <mxGeometry relative="1" as="geometry">
            <mxPoint y="-115" as="offset" />
          </mxGeometry>
        </mxCell>
        <mxCell id="qPnF07jMOAaVKdoR_6zm-259" value="F&lt;sub&gt;1&lt;/sub&gt;" style="edgeLabel;html=1;align=center;verticalAlign=middle;resizable=0;points=[];fontSize=12;" parent="qPnF07jMOAaVKdoR_6zm-179" vertex="1" connectable="0">
          <mxGeometry relative="1" as="geometry">
            <mxPoint y="95" as="offset" />
          </mxGeometry>
        </mxCell>
        <mxCell id="qPnF07jMOAaVKdoR_6zm-180" value="" style="endArrow=none;html=1;rounded=0;" parent="qPnF07jMOAaVKdoR_6zm-181" edge="1">
          <mxGeometry width="50" height="50" relative="1" as="geometry">
            <mxPoint x="60" y="-60" as="sourcePoint" />
            <mxPoint x="60" y="210" as="targetPoint" />
          </mxGeometry>
        </mxCell>
        <mxCell id="qPnF07jMOAaVKdoR_6zm-222" value="G&lt;sub&gt;1&lt;/sub&gt;" style="edgeLabel;html=1;align=center;verticalAlign=middle;resizable=0;points=[];fontSize=12;fontStyle=0" parent="qPnF07jMOAaVKdoR_6zm-180" vertex="1" connectable="0">
          <mxGeometry relative="1" as="geometry">
            <mxPoint y="-115" as="offset" />
          </mxGeometry>
        </mxCell>
        <mxCell id="qPnF07jMOAaVKdoR_6zm-258" value="G&lt;sub&gt;1&lt;/sub&gt;" style="edgeLabel;html=1;align=center;verticalAlign=middle;resizable=0;points=[];fontSize=12;" parent="qPnF07jMOAaVKdoR_6zm-180" vertex="1" connectable="0">
          <mxGeometry relative="1" as="geometry">
            <mxPoint y="95" as="offset" />
          </mxGeometry>
        </mxCell>
        <mxCell id="qPnF07jMOAaVKdoR_6zm-287" value="G&lt;span style=&quot;font-size: 10px;&quot;&gt;1&lt;/span&gt;" style="edgeLabel;html=1;align=center;verticalAlign=middle;resizable=0;points=[];fontSize=12;" parent="qPnF07jMOAaVKdoR_6zm-180" vertex="1" connectable="0">
          <mxGeometry relative="1" as="geometry">
            <mxPoint as="offset" />
          </mxGeometry>
        </mxCell>
        <mxCell id="qPnF07jMOAaVKdoR_6zm-193" value="L2" style="rounded=0;whiteSpace=wrap;html=1;fontSize=30;fontStyle=1" parent="1" vertex="1">
          <mxGeometry x="932.5" y="529" width="230" height="95" as="geometry" />
        </mxCell>
        <mxCell id="qPnF07jMOAaVKdoR_6zm-204" value="" style="endArrow=none;html=1;rounded=0;" parent="1" edge="1">
          <mxGeometry width="50" height="50" relative="1" as="geometry">
            <mxPoint x="642" y="334" as="sourcePoint" />
            <mxPoint x="642" y="694" as="targetPoint" />
          </mxGeometry>
        </mxCell>
        <mxCell id="qPnF07jMOAaVKdoR_6zm-207" value="" style="group" parent="1" vertex="1" connectable="0">
          <mxGeometry x="641.5" y="693.63" width="291" height="0.7400000000000091" as="geometry" />
        </mxCell>
        <mxCell id="qPnF07jMOAaVKdoR_6zm-205" value="" style="endArrow=none;html=1;rounded=0;" parent="qPnF07jMOAaVKdoR_6zm-207" edge="1">
          <mxGeometry width="50" height="50" relative="1" as="geometry">
            <mxPoint y="0.7400000000000091" as="sourcePoint" />
            <mxPoint x="22" y="0.7400000000000091" as="targetPoint" />
          </mxGeometry>
        </mxCell>
        <mxCell id="qPnF07jMOAaVKdoR_6zm-206" value="" style="endArrow=none;html=1;rounded=0;" parent="qPnF07jMOAaVKdoR_6zm-207" edge="1">
          <mxGeometry width="50" height="50" relative="1" as="geometry">
            <mxPoint x="251.5" as="sourcePoint" />
            <mxPoint x="291" as="targetPoint" />
          </mxGeometry>
        </mxCell>
        <mxCell id="qPnF07jMOAaVKdoR_6zm-208" value="S" style="rounded=0;whiteSpace=wrap;html=1;fontSize=30;fontStyle=1" parent="1" vertex="1">
          <mxGeometry x="663.5" y="674" width="230" height="40" as="geometry" />
        </mxCell>
        <mxCell id="qPnF07jMOAaVKdoR_6zm-209" value="S" style="rounded=0;whiteSpace=wrap;html=1;fontSize=30;fontStyle=1" parent="1" vertex="1">
          <mxGeometry x="932.5" y="674" width="230" height="40" as="geometry" />
        </mxCell>
        <mxCell id="qPnF07jMOAaVKdoR_6zm-215" value="KC/AC" style="rounded=0;whiteSpace=wrap;html=1;fontSize=30;fontStyle=1" parent="1" vertex="1">
          <mxGeometry x="663.5" y="774" width="230" height="40" as="geometry" />
        </mxCell>
        <mxCell id="qPnF07jMOAaVKdoR_6zm-216" value="KC/AC" style="rounded=0;whiteSpace=wrap;html=1;fontSize=30;fontStyle=1" parent="1" vertex="1">
          <mxGeometry x="932.5" y="774" width="230" height="40" as="geometry" />
        </mxCell>
        <mxCell id="qPnF07jMOAaVKdoR_6zm-213" value="" style="endArrow=none;html=1;rounded=0;" parent="1" edge="1">
          <mxGeometry width="50" height="50" relative="1" as="geometry">
            <mxPoint x="580" y="794" as="sourcePoint" />
            <mxPoint x="663.5" y="794" as="targetPoint" />
          </mxGeometry>
        </mxCell>
        <mxCell id="qPnF07jMOAaVKdoR_6zm-214" value="" style="endArrow=none;html=1;rounded=0;" parent="1" edge="1">
          <mxGeometry width="50" height="50" relative="1" as="geometry">
            <mxPoint x="893" y="793.63" as="sourcePoint" />
            <mxPoint x="932.5" y="793.63" as="targetPoint" />
          </mxGeometry>
        </mxCell>
        <mxCell id="qPnF07jMOAaVKdoR_6zm-217" value="" style="shape=waypoint;sketch=0;size=6;pointerEvents=1;points=[];fillColor=none;resizable=0;rotatable=0;perimeter=centerPerimeter;snapToPoint=1;" parent="1" vertex="1">
          <mxGeometry x="570" y="784" width="20" height="20" as="geometry" />
        </mxCell>
        <mxCell id="qPnF07jMOAaVKdoR_6zm-218" value="KA" style="text;html=1;align=center;verticalAlign=middle;resizable=0;points=[];autosize=1;strokeColor=none;fillColor=none;" parent="1" vertex="1">
          <mxGeometry x="540" y="779" width="40" height="30" as="geometry" />
        </mxCell>
        <mxCell id="qPnF07jMOAaVKdoR_6zm-254" value="" style="group" parent="1" vertex="1" connectable="0">
          <mxGeometry x="650" y="894" width="257" height="257" as="geometry" />
        </mxCell>
        <mxCell id="qPnF07jMOAaVKdoR_6zm-253" value="" style="whiteSpace=wrap;html=1;aspect=fixed;" parent="qPnF07jMOAaVKdoR_6zm-254" vertex="1">
          <mxGeometry width="255" height="255" as="geometry" />
        </mxCell>
        <mxCell id="qPnF07jMOAaVKdoR_6zm-252" value="" style="shape=image;verticalLabelPosition=bottom;labelBackgroundColor=default;verticalAlign=top;aspect=fixed;imageAspect=0;image=data:image/png,iVBORw0KGgoAAAANSUhEUgAAASwAAAEsCAQAAADTdEb+AAAAAmJLR0QA/4ePzL8AABFLSURBVHja7Z1pmBTVvcb/vcwwU9U9wyI7g4ODyi4QEROuivoIiOIGNwqKBMWoCGiMkRi9KNEhirnggihwg4KRCy6QCAomMYoRRIwRIy7sqwPMFIvM9ADTy5sP0wy9zvRyurt6eH/nC108VL3l/2fV6VOnTosQQgghhBBCCCGEEEIIIYQQQgghhBBCCCGEEEIIIYQQQgghhBBCCCGEEEIIIYQQQgghhBBCCCGEEEIIIYQQQgghhBBCCCGEEEIIIYQQQgghhBBCUoVV7pLJGWi/FJ3/8RuxVvprPV2TkP52+QnnOslnARonFucrvat2wchAK8fwYwVrJI9FaJRa9cmQVgYMHMD1x5wfUy1qlQK1rnY5VksTFoNaKVdrqKvgPclhQRqLVgvMoJUBA/twWXXBSrGzKNRKcSvDwCp9BdWiVilQ6+Iq/W2xsTjZPG61WKVW/bBDyX72or+rYIlYWSBqBQNLIZimaF970M/lWES1qBUMDIagBBXK1OpbqS8UCwuVdVr1danU6p/QYYXgdWV73I0+lY45LNVprZWBn2MshkBwhcJ97kA3l2M2y3Uaa7UTTqzFGxBY8bnC/W5Hl0rteZbsNNXKQCkGwkAFOkMwXumet+HcqvxnWTbzMy7PvVn53IRiLIIBA9MgaIo9Sve+FlafDGThTsMr1h/RCeX+XpEOwQxesU4rnOJMzUDDRSit+/PPIOiWmj7WyfzEVBQ4Njg2SIF6tf4BO4rR2d86QiB4W/23wsD8xDQ0dXw15tjY486N0lS1WqNxZ9Dn/hBco3ocKzQ/MYlWG8cdq4CBCccdm6SFiCh7/LwZesgAw3wI7Pi3ypH3SPlJxmnm/ObOEycLdl+Nc4ucoU6tybgqbLpeawgmqntWGC0/ySgtHVvvORFYtPtr9J3SVo1aX6EA08O23gBBfhIDpUGzG+rLTzJGK8e2CSdCC/dwjb5b2vnVSmJScimKIGiHSdhUt+1bTEIBBIJWmIiyZOdjNZSfZITW+o5fnYhUvEdq9D3SPnm1UjyDNJb8JO20ceyaXBOtgI+6HXulg9nUCprzHmt+klY66t8/5K6viFM92gHpdFKt3mZ7Syee/CRtnKmVPeFuqJDT3doBKTGLWkHvFcabn6SFYn3/NE8sxZzh1SuksxnUCnoTOpH8JOWcrRlPeWIt6DNe7ZB086v1sinWbkg0P0kp52rGs954ivqSVzsk3UVExKq/1rtqCtLfhhyvW20mmfwkZXTRDs7yxHu9mOvVDkvPWrXkfnkyA22qf32sZPOTlNBVPzTbl8it6A8+/Yj0Yn4Skdyj832J9nLm+3KPMj+JTFIdaAHzE4pFsVgYikWxmJ9QLIrFwlAsisX8hGJRLBaGYlEs5icUi2KxMBSLYjE/oVgUi4WhWI1CrLcwARoEVhShCEVoDx0CwYosEGsZ7vW/U52HEpyHjijBcLxBsczyf/xjELSs+1SBN9E04qLZZrxilUKg1X1agW4Q/BT7KZYZxHopSCwDBp7EgiwR69UgsQxsQSsIfkuxzCDWvDCxtmB1loi1KEQsA3dC0J1imVOs7Om8h4s1HoJWFMt8Yq3AwiwWaw86QjCEYplNrO8wKAvFOuB/Cf89/BiCZviYYplFLEEucpELgWSdWIIW6IKOsEMgGITPONxgvivWZlyetbfCnXgZXZGLYdhAsczXx/pLVvexytAXgtb4jmKZTaxdURfKzo5vhUshEDxAsTjcoFasnRAIhlEsiqVWrM8hUX66jmKlWaw5ELTIUrEWhIl1GwRWrKFYmRdrCgR27MhKsX4LQX5d9q8wFgIbZvJbYaYL8xYmwgGBoCemRPwuZeZpMxP9k3wErXE2OqAAXXAL/sFxLHNcsTjRj1AsikWxmJ9iUSxCsSgWxWJ+ikWxCMWiWBSL+SkWxSIUi2JRLOanWBSLJIDV82HCZfkQVg/zk4jYhjuq/5ZgWZzVtpHMT6KWRq9+P4vLku35G/lV6/34yzLK/8/75FQK0t+sHtt1SvITs6gVVJbe2pGFPgPpbx+iwCXDks5PzKJWiFY/ZEYrAwY+gMMlVyWVn5hFrdWm0cqAgVXQquXKhPOTNKk1oqHSmEsrAwbehe6SSxPKT8yilvm0MmDgHWhVMjDu/MQsaplTq9qF4bQquTiu/MQsaq1GoUm1MmDgTWiV0j/m/MQsaq1GYbXt5pPjVmbTyoCB16FVSr+Y8pNMqlXoOrVK8lo0dQVq9aoCrT7BPeiFruiJ3rgac7AZY5NVy5d/VH7UYH6SebU+SpFWB/ALWDEa6/yf12AYBMVJy7rAl3dU+tabn5hFrVRodTkET4dsvQ1OBTfEV3zaEekRNT8xiVo3FroKXbYb1d4E74fghrCt+9AJZQrUmu/TDku3iPmJmdRSrdX7sELwSYS/eb6BlW1ibfO82iHpGpafmBJFWhkYDkGXFH9DfM6rG1LCopmf8/OPLlKiVQUKIBiR8sGH//Xq5VLMwpleLO0HNWJ9BYHg50HbtuLXGILLcBkG4SGKxVthIq12mdmRYdtfhkDwBG+Fpw35kq9SrV2wQHBJ2PavIRAsV955D8hPTITmXOtcK5pKtXpBoGFPyNZNEAhWKR5uCMlPTIKufzq8esSxgvWin1Ir2aeET0MgmJsisQIHSCPkJ2bQyrnup9XlqMDoascXUuDfmvS8hjL0hKAjdqdArMBHOlHykwxT6Phy5LFy/xDBz447vpFmqtT6F86E4JqgcXYVYgU+hK4nP8moVv+++VhFwOjT7ccd30rzOrWSfC/nawyBoA8Wo8L/U5uTIWiB9YqmzTSQn2SIpo6N4wLKUtsmHHdskhaqrloGVmE8eqEYPXAWSnAtXsReRRP9YshPMkAz5zd3nohUvPtqnFvkDHVqpWZqcoz5SZpp6dh6z4mo8xJq9J3S1mxqBb5MEUd+kkZaObZNOFFfER+u0XdLO1V9LdWvf8WZn6SJ1vqOB040VMiHa/Q90t4sagW+sJpAfpIG2jh2Ta6JpZiPuh17pcMptRaY4hX7BPOTFFOkf/+QO9aCTvVoB6RTptUKXBQkifwkhXTUyp6oiaeo093agbr5A31yM7yMUZL5SYoo1vZNc8d7vZjh0cqlM/OTaJytGU96ErkVzfRqh+rmETA/CSbv4LPeRHs5z3rzDjI/iQyX4yYsDMWiWMxPsSgWYWEoFsVifopFsQgLQ7EoFvNTLIpFWBiKRbGYn2JRLMLCUCyKxfwUaxUeRHsIBEX+1h4OCC7MOrGW4yYUozV6oh8ewga8i99QrMwW5v8gEOwPWPtgBnpklVg7cR1smIgvYcDAXryAtrDhboqV2cIsDxHLgIGhWSTWdpwDK14N2vYl2uEmipXZwqyIINZrWSTWNRDcGrZ1MYZQLPOJlT2d98UQCD6LkHYcxTKXWN9EXc/YjGINheCsiGk3USwzifU97sgqsQogUXqEHG4whVid0RmdUQx7PSuwm0+s2kUnR1Ms81+xdmB4Fom1EQLBHRQrG/pYH2eRWN/DCsH1FCsbxNoXdT1jM/axukPQnWJxuEF1/kcgEHweIe1uVFAs84k1PoJqZhRrO9pGvBnuw+1hv+FKsdIq1tsQCPYFbVuCMVkz8r4C+RBMDro+lWEkVvNWmNnCvBgydl2BhSjEn7PoIfRyFEHQHy9hPbbjn5iJgRH7iRQrbYVZhQfQAgKBhmIUoxhF0CBog/KsmjazB0/hIrRGLlrjQkzHTnbezVEYTvQjFItiUSzmp1gUi1AsikWxmJ9iUSxCsSgWxWJ+ikWxCMWiWBQr2/LbpYCyUCxV+fvIryx/zt1mcdf+lJ39SM5n8qKMlGYUpwEsvnUJl2UdLL5Gm98pv8jZIsj1/sQzDtMwE3MwA5MxAmfWCKw1tmVyMe2ph9xRTavXJFSWT9HClXdbo8yfI/fafrD6rvUtCptzasDABkxFJ7fA/pGcR4MUl2a9KbRKSf5z7F9YcKPvi3r/fTnmo8ht8cijYqdDykoTVJYu2r4m1elveT/I5UryBzPY5mrnXhHTXsowARaf7a/s1itSK6gsXbWDszxbkf62DLpLBiadP5gRFs8A77Y4FH0NeR77BmlKh5JWK6gs52oHZ3kMZKatgFYVv1r1aDXI4hnsLYszxXvI99jWSRM6FIWc22IpzXo0r865+5RWL3gzpVWdWhcnnD+YYtuRCzxlCaRYCptP5tKgJNQyl1YGDLwJrVL6J5Q/ZNzC9kEzz9cJpngMAhlKgxJUy3xaGTDwOrRK6Rd3/lBGCeYlnKEcfT223ZJLgxJQy5xaGTCwxJd/VH4UV/5QbLYt5yfVV1wJgdxNfxpQa20WaWXAwAJf3lHpG3P+cK4ULE4yw3957ZtoT/1q3R5amvVoXp0z/qRW+qHZPjNpZcDAKz7tiHSPKX8kFrdxl/tf2B0HQR4G4AYMQg+MxF/qrkljIdBxEQagOx4OG5OfB4FcQHviUCtUqxcT1GoZ7kUhah/n5qMNmqEEgzEVG5WoNd+nHZZuDeaPfCM8ckfAsKfgCv+fv8VQWOt+eGAXBFfCgIFZEFwdtpZNjlem0J2Y1VKlVW37HQR5+BcMGNiPP2EQBE3wmBK15nm1Q9K13vyR6SV4JWA/tjqxDJTjUpz625Ni1a7C9deQ4/fzWv5Gc2JUK6gsXZLVysCrEGhBW56CBYL7laj1nFc3pCRq/mjcJFgfRSwDawIWcjsl1vUQzA85+hjYD9CbWNQa19zVwpUzTp1WBhaFiWVgEgQWLFei1jNevUI6RcwfnV9KUI8pWCwDneoWcjsl1nkQhH5F+B+IT2z0Jia11GoVWaw9aA7BAEXd+BkerVyKw/LXx2P2oDMLFWsgBMuCxHoGglvCjjwdAj41jA9FWkUWy8CtEFgUdeINlHr0Mmkfx9k9YvVV1CPWpRAs9Yt1DiZjDIZjdtiykwZKIRCdssROd+3wXEUDDJHFeg4CifJ7PQk9YvHoe6VtzOc3UbCjHrFKIPgi5FYYqT0Ii1ss1CV2LtKq/oRUilX7+zczlYk1x6cdlnNjPr+rBH+PKtZ6CHqFdd4jteHI2UpZ4mOAVrk0hWItgUAwS+VgaY84zq4oWOpgsYbCiqUxiXWWR96gKhlSK7JYL0AgeFPV453Kk493YsW245qIA6TbcSNy8HzdlwzBJVGP+yUEchdFyZBakcW6HQJbUD8n4bkOvvyjcn7c5/b7Jt7t/kc6YyFwYBBG479xIe6qWzF+JcZAkI/p/uHd0PYoLF7pQE0SVOutFIhVhlYQDFOg1RsBU2jiopv4SpM68n508FhWUpGMqRVJrN9A0ARrktYqcNJfvFiWn+HencSxZ0Igl1CQjKm1IEysebDBhtlKpyknQC+LZ3zCx96EQo9tFeXIoFqPQ5CPXf5Pa3ELLOiAJUlr9U7AixUJ8qTVl9h5lWOw11p98kESSbtayzAJDggEFrRHV3RGCUZgdsiPqyTS3oXuksuSPKtc26eFnkRe2L8PAhlFLVTwk+S78eraKmjVSl5laGfb2dodr1q/hkAepxKNTq0P4KySqxSdVbFth9Md+3jaXoyCQJ6mDkrV0o9mXq0PUeCSYQrPqqV9jcV3d5Tf3gm9Up7jtrplPFVodGqthrPadp3is7LJFGvNGe7Suq8YkY98vc8C+3fxjvGTGNXKq/r/jGn1CZq6bCNTcl4l1iUWr+65CQuxOeiYFfgIj6Ov2wL7fpnAlWYaoVrr0MxluzmFZ1YipTk7BYKWNRe4B+NaXOLrUpPnEVjdtpVyM19PTfngQ25V3rH0N3uN7ZY0nN1ZcqtMk0Xyju19eUvmyoNyBSfzpQtdmmWgcVUqQgghhBBCCCGEEEIIIYQQQgghhBBCCCGEEEIIIYQQQgghhBBCCCGEEEIIIYQQQgghhBBCCCGEEEIIIYQQQgghhBBCCCGZ4D+Yx2fVlhNK9wAAAABJRU5ErkJggg==;" parent="qPnF07jMOAaVKdoR_6zm-254" vertex="1">
          <mxGeometry width="257" height="257" as="geometry" />
        </mxCell>
        <mxCell id="qPnF07jMOAaVKdoR_6zm-255" value="" style="group" parent="1" vertex="1" connectable="0">
          <mxGeometry x="919" y="894" width="257" height="257" as="geometry" />
        </mxCell>
        <mxCell id="qPnF07jMOAaVKdoR_6zm-256" value="" style="whiteSpace=wrap;html=1;aspect=fixed;" parent="qPnF07jMOAaVKdoR_6zm-255" vertex="1">
          <mxGeometry width="255" height="255" as="geometry" />
        </mxCell>
        <mxCell id="qPnF07jMOAaVKdoR_6zm-257" value="" style="shape=image;verticalLabelPosition=bottom;labelBackgroundColor=default;verticalAlign=top;aspect=fixed;imageAspect=0;image=data:image/png,iVBORw0KGgoAAAANSUhEUgAAASwAAAEsCAQAAADTdEb+AAAAAmJLR0QA/4ePzL8AABFLSURBVHja7Z1pmBTVvcb/vcwwU9U9wyI7g4ODyi4QEROuivoIiOIGNwqKBMWoCGiMkRi9KNEhirnggihwg4KRCy6QCAomMYoRRIwRIy7sqwPMFIvM9ADTy5sP0wy9zvRyurt6eH/nC108VL3l/2fV6VOnTosQQgghhBBCCCGEEEIIIYQQQgghhBBCCCGEEEIIIYQQQgghhBBCCCGEEEIIIYQQQgghhBBCCCGEEEIIIYQQQgghhBBCCCGEEEIIIYQQQgghhBBCUoVV7pLJGWi/FJ3/8RuxVvprPV2TkP52+QnnOslnARonFucrvat2wchAK8fwYwVrJI9FaJRa9cmQVgYMHMD1x5wfUy1qlQK1rnY5VksTFoNaKVdrqKvgPclhQRqLVgvMoJUBA/twWXXBSrGzKNRKcSvDwCp9BdWiVilQ6+Iq/W2xsTjZPG61WKVW/bBDyX72or+rYIlYWSBqBQNLIZimaF970M/lWES1qBUMDIagBBXK1OpbqS8UCwuVdVr1danU6p/QYYXgdWV73I0+lY45LNVprZWBn2MshkBwhcJ97kA3l2M2y3Uaa7UTTqzFGxBY8bnC/W5Hl0rteZbsNNXKQCkGwkAFOkMwXumet+HcqvxnWTbzMy7PvVn53IRiLIIBA9MgaIo9Sve+FlafDGThTsMr1h/RCeX+XpEOwQxesU4rnOJMzUDDRSit+/PPIOiWmj7WyfzEVBQ4Njg2SIF6tf4BO4rR2d86QiB4W/23wsD8xDQ0dXw15tjY486N0lS1WqNxZ9Dn/hBco3ocKzQ/MYlWG8cdq4CBCccdm6SFiCh7/LwZesgAw3wI7Pi3ypH3SPlJxmnm/ObOEycLdl+Nc4ucoU6tybgqbLpeawgmqntWGC0/ySgtHVvvORFYtPtr9J3SVo1aX6EA08O23gBBfhIDpUGzG+rLTzJGK8e2CSdCC/dwjb5b2vnVSmJScimKIGiHSdhUt+1bTEIBBIJWmIiyZOdjNZSfZITW+o5fnYhUvEdq9D3SPnm1UjyDNJb8JO20ceyaXBOtgI+6HXulg9nUCprzHmt+klY66t8/5K6viFM92gHpdFKt3mZ7Syee/CRtnKmVPeFuqJDT3doBKTGLWkHvFcabn6SFYn3/NE8sxZzh1SuksxnUCnoTOpH8JOWcrRlPeWIt6DNe7ZB086v1sinWbkg0P0kp52rGs954ivqSVzsk3UVExKq/1rtqCtLfhhyvW20mmfwkZXTRDs7yxHu9mOvVDkvPWrXkfnkyA22qf32sZPOTlNBVPzTbl8it6A8+/Yj0Yn4Skdyj832J9nLm+3KPMj+JTFIdaAHzE4pFsVgYikWxmJ9QLIrFwlAsisX8hGJRLBaGYlEs5icUi2KxMBSLYjE/oVgUi4WhWI1CrLcwARoEVhShCEVoDx0CwYosEGsZ7vW/U52HEpyHjijBcLxBsczyf/xjELSs+1SBN9E04qLZZrxilUKg1X1agW4Q/BT7KZYZxHopSCwDBp7EgiwR69UgsQxsQSsIfkuxzCDWvDCxtmB1loi1KEQsA3dC0J1imVOs7Om8h4s1HoJWFMt8Yq3AwiwWaw86QjCEYplNrO8wKAvFOuB/Cf89/BiCZviYYplFLEEucpELgWSdWIIW6IKOsEMgGITPONxgvivWZlyetbfCnXgZXZGLYdhAsczXx/pLVvexytAXgtb4jmKZTaxdURfKzo5vhUshEDxAsTjcoFasnRAIhlEsiqVWrM8hUX66jmKlWaw5ELTIUrEWhIl1GwRWrKFYmRdrCgR27MhKsX4LQX5d9q8wFgIbZvJbYaYL8xYmwgGBoCemRPwuZeZpMxP9k3wErXE2OqAAXXAL/sFxLHNcsTjRj1AsikWxmJ9iUSxCsSgWxWJ+ikWxCMWiWBSL+SkWxSIUi2JRLOanWBSLJIDV82HCZfkQVg/zk4jYhjuq/5ZgWZzVtpHMT6KWRq9+P4vLku35G/lV6/34yzLK/8/75FQK0t+sHtt1SvITs6gVVJbe2pGFPgPpbx+iwCXDks5PzKJWiFY/ZEYrAwY+gMMlVyWVn5hFrdWm0cqAgVXQquXKhPOTNKk1oqHSmEsrAwbehe6SSxPKT8yilvm0MmDgHWhVMjDu/MQsaplTq9qF4bQquTiu/MQsaq1GoUm1MmDgTWiV0j/m/MQsaq1GYbXt5pPjVmbTyoCB16FVSr+Y8pNMqlXoOrVK8lo0dQVq9aoCrT7BPeiFruiJ3rgac7AZY5NVy5d/VH7UYH6SebU+SpFWB/ALWDEa6/yf12AYBMVJy7rAl3dU+tabn5hFrVRodTkET4dsvQ1OBTfEV3zaEekRNT8xiVo3FroKXbYb1d4E74fghrCt+9AJZQrUmu/TDku3iPmJmdRSrdX7sELwSYS/eb6BlW1ibfO82iHpGpafmBJFWhkYDkGXFH9DfM6rG1LCopmf8/OPLlKiVQUKIBiR8sGH//Xq5VLMwpleLO0HNWJ9BYHg50HbtuLXGILLcBkG4SGKxVthIq12mdmRYdtfhkDwBG+Fpw35kq9SrV2wQHBJ2PavIRAsV955D8hPTITmXOtcK5pKtXpBoGFPyNZNEAhWKR5uCMlPTIKufzq8esSxgvWin1Ir2aeET0MgmJsisQIHSCPkJ2bQyrnup9XlqMDoascXUuDfmvS8hjL0hKAjdqdArMBHOlHykwxT6Phy5LFy/xDBz447vpFmqtT6F86E4JqgcXYVYgU+hK4nP8moVv+++VhFwOjT7ccd30rzOrWSfC/nawyBoA8Wo8L/U5uTIWiB9YqmzTSQn2SIpo6N4wLKUtsmHHdskhaqrloGVmE8eqEYPXAWSnAtXsReRRP9YshPMkAz5zd3nohUvPtqnFvkDHVqpWZqcoz5SZpp6dh6z4mo8xJq9J3S1mxqBb5MEUd+kkZaObZNOFFfER+u0XdLO1V9LdWvf8WZn6SJ1vqOB040VMiHa/Q90t4sagW+sJpAfpIG2jh2Ta6JpZiPuh17pcMptRaY4hX7BPOTFFOkf/+QO9aCTvVoB6RTptUKXBQkifwkhXTUyp6oiaeo093agbr5A31yM7yMUZL5SYoo1vZNc8d7vZjh0cqlM/OTaJytGU96ErkVzfRqh+rmETA/CSbv4LPeRHs5z3rzDjI/iQyX4yYsDMWiWMxPsSgWYWEoFsVifopFsQgLQ7EoFvNTLIpFWBiKRbGYn2JRLMLCUCyKxfwUaxUeRHsIBEX+1h4OCC7MOrGW4yYUozV6oh8ewga8i99QrMwW5v8gEOwPWPtgBnpklVg7cR1smIgvYcDAXryAtrDhboqV2cIsDxHLgIGhWSTWdpwDK14N2vYl2uEmipXZwqyIINZrWSTWNRDcGrZ1MYZQLPOJlT2d98UQCD6LkHYcxTKXWN9EXc/YjGINheCsiGk3USwzifU97sgqsQogUXqEHG4whVid0RmdUQx7PSuwm0+s2kUnR1Ms81+xdmB4Fom1EQLBHRQrG/pYH2eRWN/DCsH1FCsbxNoXdT1jM/axukPQnWJxuEF1/kcgEHweIe1uVFAs84k1PoJqZhRrO9pGvBnuw+1hv+FKsdIq1tsQCPYFbVuCMVkz8r4C+RBMDro+lWEkVvNWmNnCvBgydl2BhSjEn7PoIfRyFEHQHy9hPbbjn5iJgRH7iRQrbYVZhQfQAgKBhmIUoxhF0CBog/KsmjazB0/hIrRGLlrjQkzHTnbezVEYTvQjFItiUSzmp1gUi1AsikWxmJ9iUSxCsSgWxWJ+ikWxCMWiWBQr2/LbpYCyUCxV+fvIryx/zt1mcdf+lJ39SM5n8qKMlGYUpwEsvnUJl2UdLL5Gm98pv8jZIsj1/sQzDtMwE3MwA5MxAmfWCKw1tmVyMe2ph9xRTavXJFSWT9HClXdbo8yfI/fafrD6rvUtCptzasDABkxFJ7fA/pGcR4MUl2a9KbRKSf5z7F9YcKPvi3r/fTnmo8ht8cijYqdDykoTVJYu2r4m1elveT/I5UryBzPY5mrnXhHTXsowARaf7a/s1itSK6gsXbWDszxbkf62DLpLBiadP5gRFs8A77Y4FH0NeR77BmlKh5JWK6gs52oHZ3kMZKatgFYVv1r1aDXI4hnsLYszxXvI99jWSRM6FIWc22IpzXo0r865+5RWL3gzpVWdWhcnnD+YYtuRCzxlCaRYCptP5tKgJNQyl1YGDLwJrVL6J5Q/ZNzC9kEzz9cJpngMAhlKgxJUy3xaGTDwOrRK6Rd3/lBGCeYlnKEcfT223ZJLgxJQy5xaGTCwxJd/VH4UV/5QbLYt5yfVV1wJgdxNfxpQa20WaWXAwAJf3lHpG3P+cK4ULE4yw3957ZtoT/1q3R5amvVoXp0z/qRW+qHZPjNpZcDAKz7tiHSPKX8kFrdxl/tf2B0HQR4G4AYMQg+MxF/qrkljIdBxEQagOx4OG5OfB4FcQHviUCtUqxcT1GoZ7kUhah/n5qMNmqEEgzEVG5WoNd+nHZZuDeaPfCM8ckfAsKfgCv+fv8VQWOt+eGAXBFfCgIFZEFwdtpZNjlem0J2Y1VKlVW37HQR5+BcMGNiPP2EQBE3wmBK15nm1Q9K13vyR6SV4JWA/tjqxDJTjUpz625Ni1a7C9deQ4/fzWv5Gc2JUK6gsXZLVysCrEGhBW56CBYL7laj1nFc3pCRq/mjcJFgfRSwDawIWcjsl1vUQzA85+hjYD9CbWNQa19zVwpUzTp1WBhaFiWVgEgQWLFei1jNevUI6RcwfnV9KUI8pWCwDneoWcjsl1nkQhH5F+B+IT2z0Jia11GoVWaw9aA7BAEXd+BkerVyKw/LXx2P2oDMLFWsgBMuCxHoGglvCjjwdAj41jA9FWkUWy8CtEFgUdeINlHr0Mmkfx9k9YvVV1CPWpRAs9Yt1DiZjDIZjdtiykwZKIRCdssROd+3wXEUDDJHFeg4CifJ7PQk9YvHoe6VtzOc3UbCjHrFKIPgi5FYYqT0Ii1ss1CV2LtKq/oRUilX7+zczlYk1x6cdlnNjPr+rBH+PKtZ6CHqFdd4jteHI2UpZ4mOAVrk0hWItgUAwS+VgaY84zq4oWOpgsYbCiqUxiXWWR96gKhlSK7JYL0AgeFPV453Kk493YsW245qIA6TbcSNy8HzdlwzBJVGP+yUEchdFyZBakcW6HQJbUD8n4bkOvvyjcn7c5/b7Jt7t/kc6YyFwYBBG479xIe6qWzF+JcZAkI/p/uHd0PYoLF7pQE0SVOutFIhVhlYQDFOg1RsBU2jiopv4SpM68n508FhWUpGMqRVJrN9A0ARrktYqcNJfvFiWn+HencSxZ0Igl1CQjKm1IEysebDBhtlKpyknQC+LZ3zCx96EQo9tFeXIoFqPQ5CPXf5Pa3ELLOiAJUlr9U7AixUJ8qTVl9h5lWOw11p98kESSbtayzAJDggEFrRHV3RGCUZgdsiPqyTS3oXuksuSPKtc26eFnkRe2L8PAhlFLVTwk+S78eraKmjVSl5laGfb2dodr1q/hkAepxKNTq0P4KySqxSdVbFth9Md+3jaXoyCQJ6mDkrV0o9mXq0PUeCSYQrPqqV9jcV3d5Tf3gm9Up7jtrplPFVodGqthrPadp3is7LJFGvNGe7Suq8YkY98vc8C+3fxjvGTGNXKq/r/jGn1CZq6bCNTcl4l1iUWr+65CQuxOeiYFfgIj6Ov2wL7fpnAlWYaoVrr0MxluzmFZ1YipTk7BYKWNRe4B+NaXOLrUpPnEVjdtpVyM19PTfngQ25V3rH0N3uN7ZY0nN1ZcqtMk0Xyju19eUvmyoNyBSfzpQtdmmWgcVUqQgghhBBCCCGEEEIIIYQQQgghhBBCCCGEEEIIIYQQQgghhBBCCCGEEEIIIYQQQgghhBBCCCGEEEIIIYQQQgghhBBCCCGZ4D+Yx2fVlhNK9wAAAABJRU5ErkJggg==;" parent="qPnF07jMOAaVKdoR_6zm-255" vertex="1">
          <mxGeometry width="257" height="257" as="geometry" />
        </mxCell>
      </root>
    </mxGraphModel>
  </diagram>
</mxfile>
